<?xml version="1.0" encoding="UTF-8"?>
<svg id="Layer_1" xmlns="http://www.w3.org/2000/svg" version="1.1" viewBox="0 0 579.63 132.76">
  <!-- Generator: Adobe Illustrator 30.0.0, SVG Export Plug-In . SVG Version: 2.1.1 Build 123)  -->
  <defs>
    <style>
      .st0 {
        fill: #254d6e;
      }
    </style>
  </defs>
  <g>
    <path class="st0" d="M78.97,130.19c-10,0-20.07-6.97-20.07-24.21s10.07-24.21,20.07-24.21c7.11,0,15,1.45,19.21,12.24h.66v-9.74c-4.21-3.09-11.78-5.07-19.87-5.07-15.2,0-27.77,10.4-27.77,26.78s12.57,26.78,27.77,26.78c7.17,0,14.34-1.45,20.07-5.13v-9.74h-.66c-4.21,10.79-12.24,12.3-19.41,12.3h0Z"/>
    <path class="st0" d="M150.56,79.2c-15.2,0-28.03,10.4-28.03,26.78s12.83,26.78,28.03,26.78,28.03-10.4,28.03-26.78-12.83-26.78-28.03-26.78ZM150.56,130.19c-10,0-20.33-6.97-20.33-24.21s10.33-24.21,20.33-24.21,20.33,6.97,20.33,24.21-10.33,24.21-20.33,24.21Z"/>
    <path class="st0" d="M247.09,80.06l-15.46,43.95-16.45-43.95h-8.22l-2.24,51.78h3.55l1.84-41.5c.04-1.01,1.43-1.23,1.79-.29l15.84,41.79h4.47l14.58-41.37c.34-.96,1.76-.75,1.8.27l1.65,41.1h6.97l-2.24-51.78h-7.9.02Z"/>
    <path class="st0" d="M449.1,117.9c0,.89-1.14,1.27-1.67.55l-28.26-38.39h-7.96v51.78h3.62v-43.69c0-.89,1.14-1.27,1.67-.55l32.54,44.24h3.68v-51.78h-3.62v37.84Z"/>
    <path class="st0" d="M502.4,105.14c-.36.59-1.22.59-1.58,0l-15.33-25.09h-7.43l18.16,29.61v22.17h6.84v-22.11l18.36-29.67h-3.75l-15.26,25.09h-.01Z"/>
    <path class="st0" d="M359.94,80.06l-20.33,51.78h3.55l6.81-17.24c.14-.35.48-.59.86-.59h19.8c.38,0,.72.23.86.59l6.74,17.24h7.17l-20.33-51.78h-5.13,0ZM370.45,112.86l-3.46-2.59c-.64-.48-1.42-.74-2.22-.74h-11.43c-.65,0-1.1-.66-.86-1.27l7.45-18.85c.31-.78,1.42-.78,1.72,0l9.08,23.23c.07.17-.13.33-.28.22h0Z"/>
    <path class="st0" d="M540.61,80.09c-4.76,0-8.63,3.87-8.63,8.63s3.87,8.63,8.63,8.63,8.63-3.87,8.63-8.63-3.87-8.63-8.63-8.63ZM540.61,96.19c-4.13,0-7.48-3.36-7.48-7.48s3.36-7.48,7.48-7.48,7.48,3.36,7.48,7.48-3.36,7.48-7.48,7.48Z"/>
    <path class="st0" d="M542.2,88.82c.63-.09,1.12-.34,1.45-.75.34-.42.51-.93.51-1.55,0-.48-.09-.88-.26-1.19-.18-.31-.41-.56-.7-.74-.3-.19-.65-.32-1.03-.4-.4-.08-.81-.12-1.24-.12h-3v8.8h1.25v-3.89h1.5l2.13,3.89h1.51l-2.41-4.02.29-.04h0ZM540.64,87.97h-1.46v-2.87h1.61c.22,0,.44.01.66.04.24.03.46.09.66.18.21.09.39.24.52.44.13.2.2.45.2.76,0,.34-.07.62-.22.82-.14.2-.33.35-.55.44-.21.09-.45.15-.7.17-.24.02-.48.03-.72.03h0Z"/>
    <path class="st0" d="M303.22,80.06h-14.74v51.78h6.84v-22.83h7.9c11.38,0,22.11-3.49,22.11-14.47s-10.72-14.48-22.11-14.48h0ZM302.76,106.05h-6.1l-1.93,1.44c-.15.11-.35-.04-.28-.22l.88-2.24v-21.08c0-.51.41-.93.93-.93h6.51c9.15,0,14.87,2.9,14.87,11.51s-5.72,11.51-14.87,11.51h-.01Z"/>
  </g>
  <g>
    <path class="st0" d="M103.89,23.42c0,.51-.41.93-.93.93h-26.19l-2.16,1.62c-.15.11-.35-.04-.28-.22l1.54-3.94V.86h-6.84v51.78h6.84v-24.01c0-.51.41-.93.93-.93h26.17c.51,0,.93.41.93.93v24.01h6.84V.86h-6.84v22.56h0Z"/>
    <path class="st0" d="M142.33,52.64h32.83v-3.16h-25.06c-.51,0-.93-.41-.93-.93v-20.06c0-.51.41-.93.93-.93h21.84v-3.16h-21.4l-2.06,1.54c-.15.11-.35-.04-.28-.22l.98-2.52V4.94c0-.51.41-.93.93-.93h25.06V.86h-32.83v51.78h0Z"/>
    <path class="st0" d="M248.79.86h-14.74v51.78h6.84v-22.83h7.9c11.38,0,22.11-3.49,22.11-14.47s-10.72-14.48-22.11-14.48h0ZM248.33,26.84h-6.1l-1.93,1.44c-.15.11-.35-.04-.28-.22l.88-2.24V4.74c0-.51.41-.93.93-.93h6.51c9.15,0,14.87,2.9,14.87,11.51s-5.72,11.51-14.87,11.51h0Z"/>
    <path class="st0" d="M362.82,50.72c-.15.11-.35-.04-.28-.22l1.07-2.75V.86h-6.84v51.78h32.83v-3.16h-25.12l-1.66,1.24h0Z"/>
    <path class="st0" d="M498.77,50.99c-10,0-20.07-6.97-20.07-24.21s10.07-24.21,20.07-24.21c7.11,0,15,1.45,19.21,12.24h.66V5.07C514.43,1.98,506.86,0,498.77,0,483.57,0,471,10.4,471,26.78s12.57,26.78,27.77,26.78c7.17,0,14.34-1.45,20.07-5.13v-9.74h-.66c-4.21,10.79-12.24,12.3-19.41,12.3Z"/>
    <path class="st0" d="M305.51.86l-20.33,51.78h3.55l6.81-17.24c.14-.35.48-.59.86-.59h19.8c.38,0,.72.23.86.59l6.74,17.24h7.17L310.64.86h-5.13ZM316.02,33.66l-3.46-2.59c-.64-.48-1.42-.74-2.22-.74h-11.43c-.65,0-1.1-.66-.86-1.27l7.45-18.85c.31-.78,1.42-.78,1.72,0l9.08,23.23c.07.17-.13.33-.28.22h0Z"/>
    <path class="st0" d="M426.85.86l-20.33,51.78h3.55l6.81-17.24c.14-.35.48-.59.86-.59h19.8c.38,0,.72.23.86.59l6.74,17.24h7.17L431.98.86h-5.13ZM437.35,33.66l-3.46-2.59c-.64-.48-1.42-.74-2.22-.74h-11.43c-.65,0-1.1-.66-.86-1.27l7.45-18.85c.31-.78,1.42-.78,1.72,0l9.08,23.23c.07.17-.13.33-.28.22h0Z"/>
    <path class="st0" d="M546.8,52.64h32.83v-3.16h-25.06c-.51,0-.93-.41-.93-.93v-20.06c0-.51.41-.93.93-.93h21.84v-3.16h-21.4l-2.06,1.54c-.15.11-.35-.04-.28-.22l.98-2.52V4.94c0-.51.41-.93.93-.93h25.06V.86h-32.83v51.78h0Z"/>
    <path class="st0" d="M0,.86v3.16h18.42v48.62h6.84V5.78l-1.32-1.77-.41-.55c-.11-.15.04-.35.22-.28l2.14.84h17.8V.86H0Z"/>
  </g>
</svg>